<?xml version="1.0" encoding="utf-8"?>
<!-- Generator: Adobe Illustrator 24.1.1, SVG Export Plug-In . SVG Version: 6.00 Build 0)  -->
<svg version="1.1" xmlns="http://www.w3.org/2000/svg" xmlns:xlink="http://www.w3.org/1999/xlink" x="0px" y="0px"
	 viewBox="0 0 1080 245" style="enable-background:new 0 0 1080 245;" xml:space="preserve">
<style type="text/css">
	.st0{fill:#E6332A;}
	.st1{fill:none;stroke:#F9B233;stroke-width:3;stroke-linecap:round;stroke-linejoin:round;stroke-miterlimit:10;}
</style>
<g id="Layer_1">
</g>
<g id="Слой_1">
	<g>
		<g>
			<g>
				<g>
					<path class="st0" d="M29.88,109.65c9.05,0,16.67,0.33,22.89,0.99c6.21,0.66,11.21,2.93,14.98,6.78
						c3.77,3.86,6.45,9.98,8.05,18.37c1.6,8.39,2.41,20.3,2.41,35.75c0,17.71-0.81,31.32-2.41,40.83
						c-1.6,9.51-4.23,16.49-7.91,20.91c-3.67,4.43-8.62,7.02-14.84,7.77c-6.22,0.75-13.85,1.13-22.89,1.13H-0.07v-4.24h7.06V44.37
						h58.49v14.7h-4.23V48.61H29.88V109.65z M30.16,237.65c3.58,0,6.97-0.14,10.17-0.42c3.2-0.28,6.03-2.35,8.48-6.22
						c2.45-3.86,4.33-10.31,5.66-19.35c1.31-9.05,1.98-22.42,1.98-40.13c0-15.07-0.7-26.51-2.12-34.34
						c-1.41-7.81-3.29-13.37-5.65-16.67c-2.36-3.29-5.18-5.09-8.48-5.37c-3.29-0.28-6.74-0.42-10.31-0.42L30.16,237.65z"/>
					<path class="st0" d="M98.03,47.76v-3.39h35.89v3.39h-5.94l0.28,191.02h5.65v3.39H98.03v-3.39h7.07V47.76H98.03z"/>
					<path class="st0" d="M206.74,44.37l35.32,194.98h5.65v2.83h-40.41v-2.83h7.06L186.96,58.22l-24.02,181.13h4.81v2.83
						c-0.56,0-1.65,0-3.25,0c-1.6,0-3.15,0-4.66,0c-1.51,0-2.87,0-4.1,0c-1.22,0-1.84-0.09-1.84-0.28v-2.54h4.52
						c0-0.18,0.38-3.06,1.13-8.62c0.75-5.55,1.74-12.8,2.97-21.76c1.22-8.95,2.59-19.17,4.09-30.66
						c1.51-11.49,3.02-23.17,4.52-35.04c3.57-28.07,7.63-59.9,12.15-95.51h-7.06v-3.39H206.74z"/>
					<path class="st0" d="M330.79,89.58c-2.45,6.97-4.57,13.33-6.35,19.07c-1.8,5.75-3.86,12.29-6.22,19.64
						c-2.36,7.35-4.76,14.79-7.21,22.32c-5.84,17.9-12.43,38.15-19.78,60.75v27.41h5.65v3.39h-35.88v-3.39h7.06V47.76h-7.06v-3.39
						h35.88v3.39h-5.93l0.28,152.59c2.45-6.96,4.61-13.32,6.5-19.07c1.88-5.75,4-12.25,6.36-19.5c2.35-7.25,4.75-14.74,7.2-22.46
						c5.84-17.9,12.34-38.15,19.5-60.75v-30.8h-7.06v-3.39h35.88v3.39h-5.93l0.28,191.02h5.65v3.39h-35.88v-3.39h7.06V89.58z"/>
					<path class="st0" d="M451.19,89.58c-2.45,6.97-4.57,13.33-6.36,19.07c-1.79,5.75-3.86,12.29-6.22,19.64
						c-2.36,7.35-4.76,14.79-7.2,22.32c-5.84,17.9-12.44,38.15-19.78,60.75v27.41h5.66v3.39h-35.89v-3.39h7.07V47.76h-7.07v-3.39
						h35.89v3.39h-5.94l0.28,152.59c2.45-6.96,4.62-13.32,6.5-19.07c1.88-5.75,4-12.25,6.36-19.5c2.35-7.25,4.76-14.74,7.2-22.46
						c5.84-17.9,12.34-38.15,19.5-60.75v-30.8h-7.06v-3.39h35.89v3.39h-5.94l0.28,191.02h5.65v3.39h-35.89v-3.39h7.06V89.58z
						 M431.41,28.27c5.46-0.37,9.19-1.03,11.16-1.98c1.98-0.94,2.92-1.98,2.83-3.11c-0.1-1.13-0.76-2.4-1.98-3.81
						c-1.23-1.41-2.32-2.92-3.25-4.52c-0.94-1.6-1.32-3.25-1.13-4.94c0.18-1.7,1.79-3.48,4.8-5.37c2.45-1.5,4.61-1.88,6.5-1.13
						c1.88,0.75,3.29,2.07,4.24,3.95c0.94,1.89,1.32,4.15,1.13,6.78c-0.19,2.64-1.13,5.13-2.83,7.49c-1.7,2.36-4.29,4.38-7.77,6.08
						c-3.49,1.69-8.05,2.54-13.7,2.54c-8.3,0-14.27-1.74-17.95-5.23c-3.67-3.48-5.7-7.11-6.08-10.88s0.57-6.87,2.83-9.33
						c2.26-2.45,5.27-2.55,9.05-0.28c2.83,1.89,4.38,3.67,4.66,5.37c0.28,1.69-0.05,3.34-0.99,4.94c-0.95,1.6-2.08,3.11-3.39,4.52
						c-1.32,1.41-1.98,2.69-1.98,3.81c0,1.13,0.94,2.17,2.83,3.11C422.27,27.23,425.94,27.89,431.41,28.27z"/>
					<path class="st0" d="M643.62,148.36h-20.63c-1.13,0-2.68,0.1-4.66,0.28c-1.98,0.19-3.91,0.61-5.79,1.27
						c-1.89,0.66-3.49,1.56-4.81,2.69c-1.32,1.13-1.98,2.64-1.98,4.52v81.66h5.65v3.39h-35.88v-3.39h7.06V47.76h-7.06v-3.39h35.88
						v3.39h-5.93l0.28,101.73c0-0.75,0.57-1.42,1.7-1.98c1.13-0.56,2.64-1.08,4.52-1.55c1.88-0.47,3.85-0.85,5.93-1.13
						c2.07-0.28,4.14-0.42,6.22-0.42h19.5V47.76h-7.07v-3.39h35.89v3.39h-5.94l0.28,191.02h5.65v3.39h-35.89v-3.39h7.07V148.36z"/>
					<path class="st0" d="M741.39,193.57h-22.6c-1.7,0-3.53,0.14-5.51,0.42c-1.98,0.28-3.86,0.85-5.65,1.69
						c-1.79,0.85-3.29,1.98-4.52,3.39c-1.23,1.41-1.93,3.25-2.12,5.51l-4.52,34.75h4.8v2.83c-0.56,0-1.65,0-3.24,0
						c-1.61,0-3.16,0-4.66,0c-1.51,0-2.88,0-4.1,0c-1.22,0-1.84-0.09-1.84-0.28v-2.54h4.52c0-0.18,0.38-3.06,1.13-8.62
						c0.75-5.55,1.74-12.8,2.97-21.76c1.22-8.95,2.59-19.17,4.1-30.66c1.51-11.49,3.01-23.17,4.52-35.04
						c3.57-28.07,7.63-59.9,12.15-95.51h-7.07v-3.39h30.52l35.32,194.98h5.65v2.83h-40.41v-2.83h7.06L741.39,193.57z M740.82,190.75
						L720.48,58.22l-18.93,141.29c0-2.83,1.93-4.99,5.8-6.5c3.85-1.51,8.05-2.26,12.57-2.26H740.82z"/>
					<path class="st0" d="M832.66,44.37l35.32,194.98h5.65v2.83h-40.41v-2.83h7.06L812.88,58.22l-24.02,181.13h4.8v2.83
						c-0.56,0-1.65,0-3.24,0c-1.61,0-3.16,0-4.66,0c-1.51,0-2.88,0-4.1,0c-1.22,0-1.84-0.09-1.84-0.28v-2.54h4.52
						c0-0.18,0.38-3.06,1.13-8.62c0.75-5.55,1.74-12.8,2.97-21.76c1.22-8.95,2.59-19.17,4.1-30.66c1.51-11.49,3.01-23.17,4.52-35.04
						c3.57-28.07,7.63-59.9,12.15-95.51h-7.07v-3.39H832.66z"/>
					<path class="st0" d="M951.05,89.58c-2.45,6.97-4.57,13.33-6.35,19.07c-1.79,5.75-3.86,12.29-6.22,19.64
						c-2.36,7.35-4.76,14.79-7.21,22.32c-5.84,17.9-12.43,38.15-19.78,60.75v27.41h5.65v3.39h-35.89v-3.39h7.06V47.76h-7.06v-3.39
						h35.89v3.39h-5.94l0.28,152.59c2.45-6.96,4.61-13.32,6.5-19.07c1.88-5.75,4-12.25,6.36-19.5c2.35-7.25,4.75-14.74,7.2-22.46
						c5.84-17.9,12.34-38.15,19.5-60.75v-30.8h-7.06v-3.39h35.88v3.39h-5.93l0.28,191.02h5.65v3.39h-35.88v-3.39h7.06V89.58z"/>
					<path class="st0" d="M1001.66,44.37h29.95c9.04,0,16.24,0.9,21.62,2.69c5.37,1.79,9.46,4.24,12.29,7.35
						c2.83,3.11,4.66,6.64,5.51,10.6c0.85,3.95,1.27,8.01,1.27,12.15c0,4.9-0.09,9.28-0.28,13.14c-0.19,3.86-0.94,7.16-2.26,9.89
						c-1.32,2.73-3.3,4.85-5.94,6.36c-2.64,1.51-6.4,2.26-11.3,2.26c6.78,0,12.06,1.56,15.82,4.66c3.76,3.11,6.5,7.4,8.2,12.86
						c1.7,5.47,2.69,12.06,2.97,19.78c0.28,7.73,0.42,16.2,0.42,25.43c0,17.52-0.8,31.04-2.4,40.55c-1.6,9.51-4.24,16.53-7.91,21.05
						c-3.67,4.52-8.57,7.16-14.69,7.91c-6.13,0.75-13.8,1.13-23.03,1.13h-30.23v-3.95h7.06V48.33h-7.06V44.37z M1031.61,112.47
						c0-1.5,0.75-2.83,2.26-3.95c1.51-1.13,4.24-1.7,8.2-1.7c3.39,0,6.03-0.18,7.91-0.56c1.88-0.37,3.29-1.36,4.24-2.97
						c0.94-1.6,1.51-4,1.7-7.21c0.18-3.2,0.28-7.63,0.28-13.28c0-8.67-0.52-15.31-1.55-19.92c-1.04-4.61-2.59-8-4.66-10.17
						c-2.07-2.16-4.62-3.43-7.63-3.81c-3.02-0.37-6.59-0.56-10.73-0.56V112.47z M1031.89,238.22c4.33,0,8.15-0.33,11.45-0.99
						c3.29-0.65,6.03-3.06,8.19-7.2c2.17-4.14,3.81-10.74,4.95-19.78c1.13-9.05,1.69-21.94,1.69-38.71
						c0-12.62-0.19-22.84-0.56-30.66c-0.38-7.81-1.23-13.94-2.55-18.37c-1.32-4.42-3.11-7.44-5.37-9.05c-2.26-1.6-5.18-2.4-8.76-2.4
						c-3.39,0-5.8,0.95-7.21,2.83c-1.41,1.89-2.12,4.71-2.12,8.48L1031.89,238.22z"/>
				</g>
			</g>
		</g>
		<g>
			<path class="st1" d="M63.04,59.07c0-4.34,0-8.67,0-13.01H16.15v193.36h16.49c19.38,0,35.09-15.71,35.09-35.09v-56.59
				c0-19.38-15.71-35.09-35.09-35.09H22.27"/>
			<polyline class="st1" points="98.03,46.06 116.78,46.06 116.78,239.41 134.69,239.41 			"/>
			<polyline class="st1" points="575.52,46.06 594.27,46.06 594.27,239.41 612.18,239.41 			"/>
			<polyline class="st1" points="636.58,46.06 655.32,46.06 655.32,239.41 673.24,239.41 			"/>
			<polyline class="st1" points="260.38,46.06 279.12,46.06 279.12,239.41 342.5,46.06 342.5,239.41 360.42,239.41 			"/>
			<polyline class="st1" points="881.26,46.06 900,46.06 900,239.41 963.38,46.06 963.38,239.41 981.3,239.41 			"/>
			<polyline class="st1" points="381.51,46.06 400.26,46.06 400.26,239.41 463.64,46.06 463.64,239.41 481.55,239.41 			"/>
			<polyline class="st1" points="150.51,239.41 160.33,239.41 186.58,46.06 			"/>
			<polyline class="st1" points="176.22,45.97 197.02,45.97 229.83,239.41 244.16,239.41 			"/>
			<polyline class="st1" points="683.68,239.41 693.51,239.41 719.76,46.06 			"/>
			<polyline class="st1" points="709.4,45.97 730.2,45.97 763,239.41 777.33,239.41 			"/>
			<polyline class="st1" points="777.33,239.41 787.15,239.41 813.41,46.06 			"/>
			<polyline class="st1" points="803.05,45.97 823.85,45.97 856.65,239.41 870.98,239.41 			"/>
			<g>
				<path class="st1" d="M442.42,16.33c-0.83-1.11-1.33-2.5-1.33-4c0-3.68,2.99-6.67,6.67-6.67c3.68,0,6.67,2.99,6.67,6.67
					c0,9.42-10.25,17.05-22.9,17.05c-12.65,0-22.9-7.63-22.9-17.05c0-3.68,2.99-6.67,6.67-6.67c3.68,0,6.67,2.99,6.67,6.67
					c0,1.5-0.49,2.88-1.33,4"/>
			</g>
			<path class="st1" d="M594.27,190.73v-16.54c0-15.29,12.4-27.69,27.69-27.69h33.37"/>
			<path class="st1" d="M697.89,207.09c4.62-8.84,13.88-14.87,24.55-14.87h33.37"/>
			<path class="st1" d="M1001.66,45.97h42.36c10.09,0,18.27,8.18,18.27,18.27v26.69c0,10.09-8.18,18.27-18.27,18.27h-2.86
				c-12.28,0-22.24,9.96-22.24,22.24v0"/>
			<line class="st1" x1="1018.92" y1="45.97" x2="1018.92" y2="239.23"/>
			<path class="st1" d="M1002,239.41h39.54c14.87,0,26.93-12.06,26.93-26.93v-76.35c0-14.87-12.06-26.93-26.93-26.93h-0.37"/>
		</g>
	</g>
</g>
</svg>
